<?xml version="1.0" encoding="UTF-8"?>
<svg width="150px" height="150px" viewBox="0 0 150 150" version="1.1" xmlns="http://www.w3.org/2000/svg" xmlns:xlink="http://www.w3.org/1999/xlink">
    <!-- Generator: Sketch 48.2 (47327) - http://www.bohemiancoding.com/sketch -->
    <title>social_icon_style1</title>
    <desc>Created with Sketch.</desc>
    <defs></defs>
    <g id="Desktop" stroke="none" stroke-width="1" fill="none" fill-rule="evenodd" transform="translate(-40.000000, -36.000000)">
        <g id="social_icon_style1" transform="translate(40.000000, 36.000000)">
            <rect id="wrapper" stroke="#0085BA" x="0.5" y="0.5" width="149" height="149" rx="6"></rect>
            <g id="icon" transform="translate(50.000000, 55.000000)" fill="#0085BA" fill-rule="nonzero">
                <path d="M42.8438662,22.8934325 L42.8438662,37.7633209 C42.8438662,38.3002891 42.6476663,38.7649732 42.2552664,39.157373 C41.8628666,39.5497728 41.3981826,39.7459727 40.8612144,39.7459727 L28.9653036,39.7459727 L28.9653036,27.850062 L21.0346964,27.850062 L21.0346964,39.7459727 L9.13878563,39.7459727 C8.60181743,39.7459727 8.13713342,39.5497728 7.74473358,39.157373 C7.35233375,38.7649732 7.15613383,38.3002891 7.15613383,37.7633209 L7.15613383,22.8934325 C7.15613383,22.8727798 7.16129698,22.8418009 7.1716233,22.8004957 C7.18194961,22.7591904 7.18711276,22.7282115 7.18711276,22.7075589 L25,8.02354399 L42.8128872,22.7075589 C42.8335399,22.7488641 42.8438662,22.810822 42.8438662,22.8934325 Z M49.7521685,20.755886 L47.8314746,23.0483271 C47.6662536,23.2342007 47.4494011,23.3477902 47.180917,23.3890954 L47.0879802,23.3890954 C46.8194961,23.3890954 46.6026435,23.3168112 46.4374226,23.1722429 L25,5.29739777 L3.56257745,23.1722429 C3.31474597,23.3374639 3.0669145,23.409748 2.81908302,23.3890954 C2.55059893,23.3477902 2.33374639,23.2342007 2.1685254,23.0483271 L0.247831475,20.755886 C0.0826104915,20.5493598 0.0103263114,20.3066914 0.0309789343,20.027881 C0.0516315572,19.7490706 0.165220983,19.5270549 0.371747212,19.361834 L22.645601,0.805452292 C23.3064849,0.268484097 24.0912846,0 25,0 C25.9087154,0 26.6935151,0.268484097 27.354399,0.805452292 L34.913259,7.12515489 L34.913259,1.0842627 C34.913259,0.795125981 35.0061958,0.557620818 35.1920694,0.371747212 C35.377943,0.185873606 35.6154482,0.092936803 35.9045849,0.092936803 L41.8525403,0.092936803 C42.141677,0.092936803 42.3791822,0.185873606 42.5650558,0.371747212 C42.7509294,0.557620818 42.8438662,0.795125981 42.8438662,1.0842627 L42.8438662,13.7236679 L49.6282528,19.361834 C49.834779,19.5270549 49.9483684,19.7490706 49.9690211,20.027881 C49.9896737,20.3066914 49.9173895,20.5493598 49.7521685,20.755886 Z" id="Shape"></path>
            </g>
        </g>
    </g>
</svg>