<?xml version="1.0" encoding="UTF-8"?>
<svg width="150px" height="150px" viewBox="0 0 150 150" version="1.1" xmlns="http://www.w3.org/2000/svg" xmlns:xlink="http://www.w3.org/1999/xlink">
    <!-- Generator: Sketch 48.2 (47327) - http://www.bohemiancoding.com/sketch -->
    <title>social_icon_style3</title>
    <desc>Created with Sketch.</desc>
    <defs>
        <rect id="path-1" x="40" y="40" width="70" height="70" rx="6"></rect>
    </defs>
    <g id="Desktop" stroke="none" stroke-width="1" fill="none" fill-rule="evenodd" transform="translate(-420.000000, -36.000000)">
        <g id="social_icon_style3" transform="translate(420.000000, 36.000000)">
            <rect id="wrapper" stroke="#0085BA" x="0.5" y="0.5" width="149" height="149" rx="6"></rect>
            <g id="wrapper-copy">
                <use fill="#0085BA" fill-rule="evenodd" xlink:href="#path-1"></use>
                <rect stroke="#0085BA" stroke-width="1" x="40.5" y="40.5" width="69" height="69" rx="6"></rect>
            </g>
            <g id="icon" transform="translate(55.000000, 59.000000)" fill="#FFFFFF" fill-rule="nonzero">
                <path d="M34.2750929,18.314746 L34.2750929,30.2106568 C34.2750929,30.6402313 34.118133,31.0119785 33.8042131,31.3258984 C33.4902933,31.6398183 33.1185461,31.7967782 32.6889715,31.7967782 L23.1722429,31.7967782 L23.1722429,22.2800496 L16.8277571,22.2800496 L16.8277571,31.7967782 L7.3110285,31.7967782 C6.88145394,31.7967782 6.50970673,31.6398183 6.19578686,31.3258984 C5.881867,31.0119785 5.72490706,30.6402313 5.72490706,30.2106568 L5.72490706,18.314746 C5.72490706,18.2982239 5.72903759,18.2734407 5.73729864,18.2403965 C5.74555969,18.2073523 5.74969021,18.1825692 5.74969021,18.1660471 L20,6.41883519 L34.2503098,18.1660471 C34.2668319,18.1990913 34.2750929,18.2486576 34.2750929,18.314746 Z M39.8017348,16.6047088 L38.2651797,18.4386617 C38.1330029,18.5873606 37.9595209,18.6782321 37.7447336,18.7112763 L37.6703841,18.7112763 C37.4555969,18.7112763 37.2821148,18.653449 37.149938,18.5377943 L20,4.23791822 L2.85006196,18.5377943 C2.65179678,18.6699711 2.4535316,18.7277984 2.25526642,18.7112763 C2.04047914,18.6782321 1.86699711,18.5873606 1.73482032,18.4386617 L0.19826518,16.6047088 C0.0660883932,16.4394878 0.00826104915,16.2453532 0.0247831475,16.0223048 C0.0413052458,15.7992565 0.132176786,15.6216439 0.29739777,15.4894672 L18.1164808,0.644361834 C18.6451879,0.214787278 19.2730277,0 20,0 C20.7269723,0 21.3548121,0.214787278 21.8835192,0.644361834 L27.9306072,5.70012392 L27.9306072,0.867410161 C27.9306072,0.636100785 28.0049566,0.446096654 28.1536555,0.29739777 C28.3023544,0.148698885 28.4923585,0.0743494424 28.7236679,0.0743494424 L33.4820322,0.0743494424 C33.7133416,0.0743494424 33.9033457,0.148698885 34.0520446,0.29739777 C34.2007435,0.446096654 34.2750929,0.636100785 34.2750929,0.867410161 L34.2750929,10.9789343 L39.7026022,15.4894672 C39.8678232,15.6216439 39.9586948,15.7992565 39.9752169,16.0223048 C39.991739,16.2453532 39.9339116,16.4394878 39.8017348,16.6047088 Z" id="Shape"></path>
            </g>
        </g>
    </g>
</svg>