<?xml version="1.0" encoding="UTF-8"?>
<svg width="166px" height="43px" viewBox="0 0 166 43" version="1.1" xmlns="http://www.w3.org/2000/svg" xmlns:xlink="http://www.w3.org/1999/xlink">
    <!-- Generator: Sketch 49.1 (51147) - http://www.bohemiancoding.com/sketch -->
    <title>Logo</title>
    <desc>Created with Sketch.</desc>
    <defs></defs>
    <g id="Page-1" stroke="none" stroke-width="1" fill="none" fill-rule="evenodd">
        <g id="Desktop-HD" transform="translate(-20.000000, -908.000000)">
            <g id="Header">
                <g id="Logo" transform="translate(20.000000, 908.000000)">
                    <text id="Customify" font-family="Roboto-Medium, Roboto" font-size="26" font-weight="400" fill="#23282D" fill-opacity="0.9">
                        <tspan x="46" y="31">Customify</tspan>
                    </text>
                    <g id="C-Letter-Logo2" fill="#4253FF" fill-rule="nonzero">
                        <path d="M22.729988,35.8642295 C17.6366931,32.3455497 7.75291474,25.8185331 2.5386513,22.239418 C-0.446539556,24.3085897 -0.846646182,26.8325038 1.5914548,28.5181125 C7.95101695,32.9165518 14.3095819,37.3165579 20.6671496,41.7181308 C22.2168473,42.7925368 23.8132416,42.8336328 25.3651506,41.7607041 C28.663819,39.4801878 31.9602762,37.1962244 35.2545221,34.9088139 C36.8048702,33.8344079 38.3133346,32.7923684 40,31.6254291 L35.0627935,28.1295805 C31.4809547,30.6056835 23.0487986,36.066755 23.0487986,36.066755 L22.729988,35.8653039 L22.729988,35.8642295 Z" id="Shape"></path>
                        <path d="M27.3751634,19.3386243 C27.3751634,19.3386243 27.7536546,19.0713899 27.9703975,18.9122292 C29.1802754,18.0222971 31.0889063,16.7071766 32.3401918,15.880131 L32.3809524,15.8513024 L32.3473087,15.8298485 C29.8085061,14.1135412 26.6202514,11.8933368 24.1115986,10.1299651 C23.2534264,9.52657581 22.4323916,9.5107536 21.5793953,10.1132043 C20.7181175,10.7215548 19.8444175,11.310865 18.9793871,11.9135839 C17.1256212,13.2053733 15.2739257,14.5003808 13.3333333,15.8557272 C14.9183381,16.9581865 16.8029009,18.2604347 18.2798577,19.3173046 C18.2798577,19.3173046 18.6575725,19.0506065 18.8246263,18.9332808 C19.9228331,18.161747 20.6770981,17.6058244 22.114459,16.6135842 C22.3836083,16.4038729 22.8235639,16.1243025 22.8235639,16.1243025 L27.3751634,19.3386243 Z" id="Shape"></path>
                        <path d="M39.9896823,21.9682088 C35.3993405,25.111153 30.9567997,28.153005 26.513872,31.194462 C26.0432992,31.5166938 25.5716086,31.8374337 25.0988003,32.1566818 C23.6856633,33.1104773 22.2453133,33.1167955 20.8520378,32.1666858 C14.3062351,27.7019507 7.76894463,23.2246669 1.24016622,18.7348343 C-0.367072462,17.5527914 -0.449356067,15.3602202 1.21192153,14.1952892 C7.76546241,9.6868528 14.3305247,5.19579164 20.9071084,0.72210573 C22.0982861,-0.0900551788 23.4261733,-0.298163185 24.6489489,0.519394579 C29.7562071,3.86110106 34.8118769,7.40367587 40,10.9299285 C38.2797826,12.11105 36.3987381,13.385366 34.7958844,14.5055426 C31.2878687,12.113551 26.4937525,8.8384496 22.9957965,6.43211028 C18.4375685,9.59203488 13.2610528,13.083537 8.68747729,16.2205579 C8.58894331,16.288216 8.33989999,16.4613103 8.33989999,16.4613103 C12.3525799,19.2076515 16.3580374,21.9714995 20.3416988,24.6750608 C21.2259252,25.2751648 23.0972968,26.4506262 23.0972968,26.4506262 C23.0972968,26.4506262 33.8782546,18.9274099 34.7404268,18.3373098 L35.039511,18.5623982 L39.9896823,21.9682088 Z" id="Shape"></path>
                    </g>
                </g>
            </g>
        </g>
    </g>
</svg>